<?xml version="1.0" encoding="UTF-8" standalone="no"?>
<!-- Created with Inkscape (http://www.inkscape.org/) -->

<svg
   xmlns:dc="http://purl.org/dc/elements/1.1/"
   xmlns:cc="http://creativecommons.org/ns#"
   xmlns:rdf="http://www.w3.org/1999/02/22-rdf-syntax-ns#"
   xmlns:svg="http://www.w3.org/2000/svg"
   xmlns="http://www.w3.org/2000/svg"
   xmlns:sodipodi="http://sodipodi.sourceforge.net/DTD/sodipodi-0.dtd"
   xmlns:inkscape="http://www.inkscape.org/namespaces/inkscape"
   inkscape:version="0.91 r13725"
   version="1.1"
   id="svg2"
   viewBox="0 0 744.09448819 1052.3622047"
   height="297mm"
   width="210mm"
   inkscape:export-filename="C:\Users\Austin\Desktop\path4729.png"
   inkscape:export-xdpi="90"
   inkscape:export-ydpi="90"
   sodipodi:docname="logo.svg">
  <sodipodi:namedview
     inkscape:window-maximized="1"
     inkscape:window-y="-8"
     inkscape:window-x="-8"
     inkscape:window-height="1017"
     inkscape:window-width="1920"
     showgrid="false"
     inkscape:current-layer="layer5"
     inkscape:document-units="px"
     inkscape:cy="567.25214"
     inkscape:cx="86.366587"
     inkscape:zoom="1.4142136"
     inkscape:pageshadow="2"
     inkscape:pageopacity="0"
     borderopacity="1.0"
     bordercolor="#666666"
     pagecolor="#888888"
     id="base" />
  <defs
     id="defs4" />
  <metadata
     id="metadata7">
    <rdf:RDF>
      <cc:Work
         rdf:about="">
        <dc:format>image/svg+xml</dc:format>
        <dc:type
           rdf:resource="http://purl.org/dc/dcmitype/StillImage" />
        <dc:title></dc:title>
      </cc:Work>
    </rdf:RDF>
  </metadata>
  <g
     inkscape:groupmode="layer"
     id="layer5"
     inkscape:label="Layer 5" />
  <g
     inkscape:groupmode="layer"
     id="layer4"
     inkscape:label="Layer 4">
    <path
       style="color:#000000;font-style:normal;font-variant:normal;font-weight:normal;font-stretch:normal;font-size:medium;line-height:normal;font-family:sans-serif;text-indent:0;text-align:start;text-decoration:none;text-decoration-line:none;text-decoration-style:solid;text-decoration-color:#000000;letter-spacing:normal;word-spacing:normal;text-transform:none;direction:ltr;block-progression:tb;writing-mode:lr-tb;baseline-shift:baseline;text-anchor:start;white-space:normal;clip-rule:nonzero;display:inline;overflow:visible;visibility:visible;opacity:1;isolation:auto;mix-blend-mode:normal;color-interpolation:sRGB;color-interpolation-filters:linearRGB;solid-color:#000000;solid-opacity:1;fill-opacity:1;fill-rule:nonzero;stroke:none;stroke-width:2.5;stroke-linecap:butt;stroke-linejoin:miter;stroke-miterlimit:4;stroke-dasharray:none;stroke-dashoffset:0;stroke-opacity:1;color-rendering:auto;image-rendering:auto;shape-rendering:auto;text-rendering:auto;enable-background:accumulate"
       d="m 156.0614,320.75854 -0.79959,1.03886 2.4901,2.94345 c 5.11142,6.04125 8.85148,11.67971 11.19127,16.83928 3.92859,8.66309 4.34296,10.71637 4.31964,21.33152 -0.0223,10.1548 -0.61313,13.41947 -4.16338,23.00175 -4.29449,11.59102 -9.98771,21.26069 -27.73413,47.05814 -18.17526,26.42084 -24.65663,36.90156 -31.17403,50.41864 -6.69572,13.88699 -11.073359,27.81709 -12.518509,39.89907 -0.90191,7.54033 -0.39092,21.8192 1.03907,28.77248 3.223049,15.67197 9.958089,29.00124 20.435309,40.43752 10.2957,11.23813 22.44849,18.68722 37.98274,23.29733 5.02939,1.49259 5.69651,1.56035 14.73871,1.35032 6.07074,-0.14102 10.74793,-0.52476 13.37393,-1.12754 12.04876,-2.76574 28.87511,-10.26215 36.90103,-16.48352 4.86124,-3.76819 11.16577,-10.47976 13.96045,-14.89669 9.72474,-15.36974 11.98652,-33.0709 7.53017,-58.22064 -1.89889,-10.71646 -2.83117,-14.19002 -8.59969,-32.01998 -2.84685,-8.79933 -5.65257,-18.43337 -6.18874,-21.16367 -1.78041,-9.06635 -1.14343,-16.05681 2.36834,-25.83432 0.48979,-1.36368 0.93492,-2.65522 1.25927,-3.64235 0.16216,-0.49357 0.29403,-0.91021 0.38761,-1.22785 0.0468,-0.15881 0.0837,-0.29169 0.11162,-0.40435 0.0279,-0.11264 0.0569,-0.14561 0.0569,-0.36212 0,-0.0671 -0.002,-0.15852 -0.0557,-0.28717 -0.0534,-0.12865 -0.19171,-0.29505 -0.35921,-0.36635 -0.33502,-0.14256 -0.50712,-0.009 -0.59259,0.04 -0.17096,0.0971 -0.2113,0.16128 -0.28717,0.24283 -0.15175,0.16307 -0.32349,0.38167 -0.53678,0.66933 -0.42663,0.57535 -0.9995,1.4124 -1.63064,2.39129 -4.66633,7.2372 -11.30042,13.33481 -16.65854,15.45309 -5.66636,2.24013 -11.25204,0.7554 -15.48657,-4.14489 -2.95174,-3.41586 -4.68564,-7.83445 -5.30795,-14.63701 -0.62233,-6.80253 -0.10501,-15.95865 1.45915,-28.66584 3.37388,-27.4099 2.18456,-41.3963 -4.95483,-57.78251 -5.98684,-13.74061 -15.41521,-24.1135 -28.92039,-31.83833 l -3.63675,-2.07985 z m 2.6281,3.0448 0.38357,0.2196 c 13.29958,7.60724 22.48524,17.72255 28.36224,31.21127 7.04796,16.17629 8.21138,29.73907 4.84932,57.05298 -1.56949,12.75081 -2.1023,21.97996 -1.46322,28.9657 0.63909,6.98572 2.47705,11.75885 5.6347,15.41295 4.53366,5.24649 10.79432,6.92396 16.91324,4.5049 5.75214,-2.27403 12.3896,-8.45713 17.17604,-15.82786 -0.18984,0.54677 -0.33439,0.99011 -0.54795,1.5847 -3.56582,9.92798 -4.24363,17.31224 -2.42413,26.57756 0.59144,3.01182 3.37474,12.49775 6.23033,21.32412 5.76582,17.82164 6.65872,21.1436 8.55301,31.83418 4.42268,24.95966 2.18747,42.17867 -7.33739,57.23246 -2.62914,4.15531 -8.95508,10.91673 -13.65093,14.55676 -7.72417,5.98743 -24.59456,13.53575 -36.40586,16.247 -2.41671,0.55476 -7.09053,0.95576 -13.12229,1.09587 -9.0371,0.20993 -9.33944,0.18964 -14.35413,-1.29858 -15.35181,-4.55598 -27.25644,-11.85977 -37.39827,-22.92992 -10.32162,-11.26645 -16.9283,-24.33911 -20.105519,-39.78823 -1.36545,-6.63948 -1.88964,-21.05887 -1.0208,-28.32274 1.420499,-11.87593 5.749389,-25.68584 12.390659,-39.45988 6.48336,-13.44652 12.90377,-23.8311 31.0695,-50.23809 17.75936,-25.81625 23.54339,-35.6279 27.88939,-47.35799 3.56946,-9.63412 4.2282,-13.27366 4.25064,-23.48528 0.0236,-10.65668 -0.49396,-13.20306 -4.44342,-21.91219 -2.41172,-5.31815 -6.22271,-11.04628 -11.39119,-17.15495 l -0.0376,-0.0443 z"
       id="path4277"
       inkscape:connector-curvature="0"
       inkscape:export-xdpi="90"
       inkscape:export-ydpi="90" />
    <path
       style="fill:#ffffff;stroke-width:2.5;stroke-miterlimit:4;stroke-dasharray:none"
       d="m 153.39501,612.63667 c -20.61019,-7.27632 -35.92396,-20.78346 -45.5177,-40.14778 -6.40196,-12.92193 -8.439109,-21.99703 -8.439109,-37.59459 0,-14.27655 1.323459,-22.01818 6.052689,-35.40541 6.24135,-17.66768 11.50892,-26.90288 38.04628,-66.70338 26.76178,-40.13709 31.02478,-49.71151 31.07686,-69.79662 0.0334,-12.87061 -1.31915,-17.87367 -7.69379,-28.4598 -1.93394,-3.21163 -3.30431,-6.05127 -3.04526,-6.31031 0.77179,-0.77179 8.20761,5.54106 13.06712,11.09372 5.22374,5.96883 11.6926,18.48262 14.04854,27.17639 2.46199,9.08511 2.90107,27.67909 1.04392,44.20681 -3.67078,32.66805 -1.09479,45.53108 10.11083,50.48787 6.87089,3.03932 12.87039,1.08674 21.51979,-7.00377 4.80029,-4.4901 4.89384,-4.52765 4.0928,-1.64302 -0.45088,1.62366 -0.80476,7.22711 -0.78641,12.45211 0.0309,8.78882 0.50083,11.00716 6.27766,29.63258 7.23347,23.32185 8.75102,29.92431 10.23171,44.5154 1.68016,16.55666 -0.92407,30.94257 -7.70331,42.55364 -1.54087,2.63911 -5.8045,7.8083 -9.47473,11.48708 -5.45301,5.46573 -8.74762,7.69828 -18.01892,12.21025 -15.5086,7.54742 -23.53069,9.60636 -37.32568,9.57996 -8.92073,-0.0171 -12.2666,-0.46117 -17.56329,-2.33113 z"
       id="path4948"
       inkscape:connector-curvature="0"
       inkscape:export-xdpi="90"
       inkscape:export-ydpi="90" />
  </g>
  <g
     inkscape:groupmode="layer"
     id="layer3"
     inkscape:label="Layer 3">
    <path
       style="fill:#f8f8f8;stroke-width:2.5;stroke-miterlimit:4;stroke-dasharray:none"
       d="m 195.15324,608.41622 c -9.04263,-2.50635 -32.01139,-10.00545 -41.14717,-13.43418 -2.76219,-1.03667 -9.90594,-3.41731 -15.875,-5.2903 -24.3388,-7.63711 -37.54855,-12.28679 -41.227826,-14.51172 -3.16902,-1.91637 -3.060129,-3.2352 1.124422,-13.61844 5.742304,-14.24853 11.165144,-26.91792 12.080794,-28.22437 0.19479,-0.27792 0.50407,-0.0901 1.51242,0.9182 1.54738,1.54738 6.08258,3.85777 13.15736,6.70281 2.6125,1.05059 7.53803,3.14244 10.94562,4.64856 3.40759,1.50612 7.06384,2.99695 8.125,3.31296 1.06116,0.31602 3.7647,1.14783 6.00787,1.84847 2.24317,0.70064 5.22442,1.49997 6.625,1.77628 8.74761,1.72575 17.41122,3.28443 19.66773,3.53844 3.67002,0.41314 8.64943,0.17631 10.83993,-0.51557 2.63679,-0.83285 2.36646,-1.32601 5.14007,9.37689 5.57496,21.51284 9.51811,38.87642 9.52197,41.92983 0.003,2.72558 -1.19897,3.01093 -6.49819,1.54214 z"
       id="path4651"
       inkscape:connector-curvature="0"
       inkscape:export-xdpi="90"
       inkscape:export-ydpi="90" />
    <path
       style="fill:#f8f8f8;stroke-width:2.5;stroke-miterlimit:4;stroke-dasharray:none"
       d="m 176.27824,553.77319 c -7.42994,-0.44143 -17.71996,-2.66161 -27.625,-5.96038 -7.55374,-2.5157 -25.19524,-9.65264 -32.16632,-13.01302 -3.76059,-1.81277 -4.47492,-2.57413 -4.42863,-4.72016 0.0541,-2.50892 1.8531,-6.06178 7.06487,-13.95262 8.7534,-13.25303 24.31942,-33.37392 29.4379,-38.05192 1.42851,-1.30558 3.00075,-2.26351 3.71508,-2.26351 0.21605,0 1.82366,0.5512 3.57246,1.2249 1.7488,0.67369 5.85084,2.13935 9.11563,3.25702 3.26479,1.11766 7.48999,2.69132 9.38934,3.49701 7.2077,3.05746 16.63742,5.54629 27.54967,7.27131 3.78657,0.59858 7.22048,1.40599 10.15188,2.387 3.18264,1.06507 7.35913,3.19651 8.79748,4.4897 1.19195,1.07167 1.30064,1.26099 1.30064,2.26552 0,3.06442 -3.26444,8.99462 -12.23852,22.23254 -2.98279,4.4 -7.43639,10.97516 -9.89689,14.61147 -4.64935,6.87115 -7.53667,10.84596 -9.70756,13.36383 -2.52306,2.92633 -6.26527,3.82276 -14.03203,3.36131 z"
       id="path4653"
       inkscape:connector-curvature="0"
       inkscape:export-xdpi="90"
       inkscape:export-ydpi="90" />
    <path
       style="fill:#dfdfdf;stroke-width:2.5;stroke-miterlimit:4;stroke-dasharray:none"
       d="m 204.04662,608.59132 c -0.0749,-0.12115 -0.25315,-1.55552 -0.39618,-3.1875 -0.36529,-4.168 -0.95333,-6.85708 -5.45972,-24.96724 -2.18973,-8.8 -4.51671,-18.34851 -5.17108,-21.2189 l -1.18976,-5.2189 0.65662,-1.33881 c 0.91262,-1.86079 4.61258,-7.72873 8.8896,-14.09839 12.45148,-18.54374 16.53163,-24.70506 19.45268,-29.375 1.80613,-2.8875 3.69152,-5.78385 4.18974,-6.43634 0.89714,-1.17493 0.91192,-1.18237 1.53647,-0.77315 1.54909,1.01501 7.66092,9.11323 12.04482,15.95949 1.98249,3.09601 8.05343,13.91702 8.05343,14.35464 0,0.28283 -25.85368,50.508 -32.69745,63.52036 -3.93577,7.48326 -5.17029,9.54873 -6.7568,11.3048 -1.25141,1.38517 -2.76901,2.09522 -3.15237,1.47494 z"
       id="path4655"
       inkscape:connector-curvature="0"
       inkscape:export-xdpi="90"
       inkscape:export-ydpi="90" />
  </g>
  <g
     inkscape:groupmode="layer"
     id="layer2"
     inkscape:label="Layer 2"
     style="display:inline">
    <path
       style="fill:#2c2c2c"
       d="m 143.28571,599.38378 c -28.05,-9.42373 -51.343352,-17.63911 -51.763002,-18.25639 -0.41966,-0.61729 -0.48127,-2.02234 -0.13693,-3.12234 0.34435,-1.1 0.61155,-3.125 0.59378,-4.5 -0.0178,-1.375 3.75634,-11.61431 8.386922,-22.75402 4.63058,-11.13971 8.41923,-20.67965 8.41923,-21.19987 0,-0.52021 1.2375,-2.88091 2.75,-5.24598 1.5125,-2.36507 3.2,-5.05513 3.75,-5.9779 7.06645,-11.85588 31.44434,-42.79232 34.72362,-44.06554 1.73993,-0.67556 14.36034,2.97586 23.27638,6.73448 5.88606,2.4813 16.16214,5.35908 26.61063,7.45222 14.27658,2.86002 22.97031,6.63389 28.03642,12.17036 4.42248,4.83309 12.85295,15.60855 12.85295,16.42809 0,0.28573 1.76013,3.62564 3.91141,7.42203 2.15127,3.79639 4.20406,7.82457 4.56174,8.95152 0.46076,1.45175 -2.17552,7.66525 -9.04435,21.3168 -20.81734,41.37372 -28.73343,56.36399 -31.00831,58.71874 -1.92947,1.99721 -3.5297,2.50748 -8.64415,2.75639 -5.84995,0.28471 -9.74104,-0.85854 -57.27634,-16.82859 z m 64.57477,12.56017 c 2.03729,-1.83749 12.50079,-21.4389 11.44438,-21.4389 -0.27449,0 -2.52686,4.03754 -5.00525,8.97232 -4.857,9.67087 -7.55033,12.02768 -13.74509,12.02768 -1.83177,0 -26.4844,-7.63472 -54.7836,-16.96605 -28.29921,-9.33133 -51.820932,-16.59823 -52.270502,-16.14866 -1.50156,1.50156 3.64615,3.77165 21.785292,9.60712 9.9,3.18489 22.5,7.34574 28,9.24635 45.47587,15.71483 50.89972,17.33934 56.71253,16.98615 3.87529,-0.23547 6.4039,-0.97069 7.86224,-2.28601 z m -6.08431,-5.6889 c -0.007,-2.49741 -5.09135,-24.5178 -9.40827,-40.75 -0.21941,-0.825 -0.94993,-3.66271 -1.62338,-6.30602 -0.98027,-3.84759 -1.54695,-4.66122 -2.84163,-4.0799 -3.41663,1.53407 -10.23141,1.50792 -17.771,-0.0682 -4.3154,-0.90212 -9.61089,-1.89479 -11.76776,-2.20594 -2.15687,-0.31114 -6.38982,-1.41492 -9.40655,-2.45282 -3.01674,-1.03792 -6.02454,-1.85555 -6.95233,-2.13966 -0.79658,-0.24392 -1.66935,-0.90399 -3.07384,-1.34852 -1.09111,-0.34534 -5.9207,-2.79504 -11.1457,-4.85455 -11.09584,-4.3736 -15.10081,-6.38654 -16.54998,-8.31822 -1.24839,-1.66403 -0.64802,-2.8573 -10.44103,20.75215 -6.708392,16.17291 -7.039842,17.32565 -5.609462,19.50869 1.49301,2.27861 13.743932,6.75395 45.100472,16.47547 5.5,1.70518 11.125,3.57138 12.5,4.14712 7.81176,3.27096 43.00647,14.60816 45.75,14.73735 3.03317,0.14284 3.24936,-0.0638 3.24046,-3.09695 z m 8.37156,-3.01839 c 1.33363,-2.32739 10.13913,-19.23932 19.56779,-37.58207 l 17.14302,-33.35046 -4.64189,-8.58512 c -4.40147,-8.14045 -14.70255,-22.23405 -16.22353,-22.19649 -0.38908,0.01 -2.50741,3.04343 -4.70741,6.74181 -2.2,3.69839 -9.7375,15.1159 -16.75,25.37224 -7.0125,10.25634 -12.75,19.36612 -12.75,20.24396 0,0.87783 2.52719,11.61497 5.61597,23.86029 5.7075,22.62711 6.03094,24.12889 6.25641,29.04941 0.11218,2.44832 0.36572,2.65776 2.09624,1.73161 1.08275,-0.57947 3.05978,-2.9578 4.3934,-5.28518 z m 16.12963,-24.71495 c 3.02959,-6.04084 5.50176,-11.32834 5.4937,-11.75 -0.0158,-0.82745 -11.98535,21.36006 -11.98535,22.21681 0,1.84935 1.64525,-0.80337 6.49165,-10.46681 z m 10.00835,-20.01666 c 1.39353,-2.75 2.30869,-5 2.03369,-5 -0.275,0 -1.64016,2.25 -3.03369,5 -1.39353,2.75 -2.30869,5 -2.03369,5 0.275,0 1.64016,-2.25 3.03369,-5 z m -47.34045,-6.53302 c 1.4361,-1.08184 6.04827,-7.14198 10.24926,-13.46698 4.20098,-6.325 9.67604,-14.425 12.16678,-18 7.57689,-10.87524 11.64813,-18.71977 10.91469,-21.03061 -0.89148,-2.80881 -10.29246,-6.98126 -18.45139,-8.18931 -11.07749,-1.6402 -22.62713,-4.53399 -28.20921,-7.06791 -2.93133,-1.33064 -7.80468,-3.19002 -10.82968,-4.13196 -3.025,-0.94194 -7.16138,-2.41439 -9.19195,-3.27211 -3.44308,-1.45437 -3.85838,-1.43306 -6.16113,0.3162 -4.0701,3.09182 -20.09553,23.47121 -29.39055,37.3757 -8.90025,13.31395 -9.95255,16.68042 -6.00637,19.21529 2.74872,1.76567 27.3312,11.92946 34.29284,14.1786 19.61619,6.33754 35.49675,7.93006 40.61671,4.07309 z"
       id="path4173"
       inkscape:connector-curvature="0"
       sodipodi:nodetypes="ssscssssssssssssssssssssssssscssssssssssssssscsscscsssssssscssssssssssssssssssss"
       inkscape:export-xdpi="90"
       inkscape:export-ydpi="90" />
  </g>
  <g
     inkscape:label="Layer 1"
     inkscape:groupmode="layer"
     id="layer1"
     style="display:inline">
    <text
       xml:space="preserve"
       style="font-style:normal;font-weight:normal;font-size:40px;line-height:125%;font-family:sans-serif;letter-spacing:0px;word-spacing:0px;fill:#2c2c2c;fill-opacity:1;stroke:none;stroke-width:1px;stroke-linecap:butt;stroke-linejoin:miter;stroke-opacity:1"
       x="22.98097"
       y="510.92044"
       id="text4203"
       sodipodi:linespacing="125%"><tspan
         sodipodi:role="line"
         id="tspan4205"
         x="22.98097"
         y="510.92044" /></text>
  </g>
  <path
     inkscape:connector-curvature="0"
     id="path4717"
     d="m 196.10891,614.00115 c -5.03966,-0.7097 -15.27987,-3.94063 -46,-14.51363 -7.5625,-2.6028 -20.72296,-7.00904 -29.24546,-9.79164 -19.29202,-6.29885 -24.386555,-8.16705 -26.632568,-9.76635 -0.687908,-0.48983 -1.041615,-1.49785 -0.525588,-1.49785 0.121762,0 2.231137,0.56892 4.6875,1.26425 8.681796,2.45761 25.770216,7.87093 53.841116,17.05595 21.14521,6.91889 41.07622,13.12398 46.34809,14.42948 1.98849,0.49242 2.42379,0.52098 4.125,0.2706 4.95268,-0.72893 7.00765,-2.93735 12.46452,-13.39528 3.07913,-5.90105 3.8101,-7.17034 3.81145,-6.6184 0.002,0.91404 -6.02882,12.45242 -9.16198,17.52832 -1.57604,2.55326 -2.55857,3.48142 -4.42437,4.1795 -2.20102,0.82351 -6.6217,1.23049 -9.28771,0.85505 z"
     style="fill:#f8f8f8;stroke-width:2.5;stroke-miterlimit:4;stroke-dasharray:none"
     inkscape:export-xdpi="90"
     inkscape:export-ydpi="90" />
  <path
     inkscape:connector-curvature="0"
     id="path4719"
     d="m 219.87028,589.37887 c -0.16957,-0.31684 -0.0934,-0.51349 1.19846,-3.09584 2.9157,-5.82809 9.73216,-18.31973 10.55663,-19.34576 l 0.12555,-0.15625 -0.0433,0.15625 c -0.39588,1.42802 -6.91862,14.71433 -9.5426,19.4375 -1.04212,1.87582 -1.89926,3.125 -2.14427,3.125 -0.0472,0 -0.11487,-0.0544 -0.15046,-0.1209 z"
     style="fill:#f8f8f8;stroke-width:2.5;stroke-miterlimit:4;stroke-dasharray:none"
     inkscape:export-xdpi="90"
     inkscape:export-ydpi="90" />
  <path
     inkscape:connector-curvature="0"
     id="path4721"
     d=""
     style="fill:#f8f8f8;stroke-width:2.5;stroke-miterlimit:4;stroke-dasharray:none" />
  <path
     inkscape:connector-curvature="0"
     id="path4723"
     d="m 214.60533,598.88042 c 0.0834,-0.16653 0.53624,-1.05195 0.75293,-1.47222 1.87671,-3.63985 3.42115,-6.37546 3.85315,-6.82494 0.0785,-0.0817 0.10937,-0.0925 0.13824,-0.0484 0.0266,0.0406 0.0314,0.0963 0.0167,0.19656 -0.12153,0.83115 -1.47498,3.7715 -3.72051,8.08273 l -0.0935,0.17954 -0.0767,0 -0.0767,0 0.0184,-0.0359 c 0.0101,-0.0198 0.0991,-0.19004 0.19765,-0.37842 0.96532,-1.84471 1.99316,-3.89365 2.53573,-5.05486 0.58772,-1.25783 0.85905,-1.94562 0.83545,-2.11779 -0.0159,-0.11567 -0.0491,-0.11944 -0.14925,-0.017 -0.25836,0.26428 -0.92785,1.45002 -2.4624,4.36118 -0.22084,0.41894 -0.56671,1.07887 -1.30714,2.49407 l -0.39156,0.7484 -0.0636,1.3e-4 -0.0636,1.4e-4 0.0567,-0.11324 z"
     style="fill:#f8f8f8;stroke-width:2.5;stroke-miterlimit:4;stroke-dasharray:none"
     inkscape:export-xdpi="90"
     inkscape:export-ydpi="90" />
  <path
     inkscape:connector-curvature="0"
     id="path4727"
     d=""
     style="fill:#f8f8f8;stroke-width:2.5;stroke-miterlimit:4;stroke-dasharray:none" />
  <path
     inkscape:connector-curvature="0"
     id="path4729"
     d="m 233.22236,563.48154 c -0.0232,-0.0232 -0.008,-0.16926 0.0353,-0.33618 0.38862,-1.50195 2.90299,-6.56841 4.35556,-8.77647 0.33584,-0.5105 0.54958,-0.77998 0.66688,-0.84077 0.0611,-0.0316 0.0785,-0.01 0.0757,0.0953 -0.0184,0.70022 -1.86451,4.67196 -3.50846,7.54823 -0.88378,1.54627 -1.50526,2.42967 -1.62504,2.30989 z"
     style="fill:#c5c5c5;stroke-width:2.5;stroke-miterlimit:4;stroke-dasharray:none"
     inkscape:export-xdpi="90"
     inkscape:export-ydpi="90" />
</svg>
